<?xml version="1.0" standalone="no"?>
<!DOCTYPE svg PUBLIC "-//W3C//DTD SVG 20010904//EN"
 "http://www.w3.org/TR/2001/REC-SVG-20010904/DTD/svg10.dtd">
<svg version="1.0" xmlns="http://www.w3.org/2000/svg"
 width="100.000000pt" height="100.000000pt" viewBox="0 0 100.000000 100.000000"
 preserveAspectRatio="xMidYMid meet">
<metadata>
Created by potrace 1.14, written by Peter Selinger 2001-2017
</metadata>
<g transform="translate(0.000000,100.000000) scale(0.100000,-0.100000)"
fill="#000000" stroke="none">
<path d="M0 500 l0 -500 500 0 500 0 0 500 0 500 -500 0 -500 0 0 -500z m128
3 c-3 -124 -4 -128 -25 -131 -23 -3 -23 -3 -23 127 l0 131 25 0 26 0 -3 -127z
m383 117 c17 -10 19 -22 19 -117 0 -126 -5 -132 -95 -133 -94 0 -101 9 -103
129 -1 93 0 102 21 116 25 17 128 21 158 5z m392 -4 c11 -8 17 -27 17 -51 0
-24 -6 -42 -17 -51 -17 -12 -17 -13 0 -19 13 -5 17 -19 17 -54 0 -41 -3 -49
-25 -59 -14 -7 -55 -12 -90 -12 l-65 0 0 130 0 130 73 0 c44 -1 79 -6 90 -14z
m-643 -211 c0 -32 -2 -35 -30 -35 -28 0 -30 3 -30 35 0 32 2 35 30 35 28 0 30
-3 30 -35z m410 -1 c0 -34 -1 -35 -32 -32 -29 3 -33 7 -36 36 -3 31 -2 32 32
32 35 0 36 -1 36 -36z"/>
<path d="M380 500 l0 -91 53 3 52 3 0 85 0 85 -52 3 -53 3 0 -91z"/>
<path d="M790 561 c0 -31 18 -43 55 -37 14 2 21 12 23 34 3 31 2 32 -37 32
-39 0 -41 -2 -41 -29z"/>
<path d="M790 450 l0 -40 40 0 40 0 0 40 0 40 -40 0 -40 0 0 -40z"/>
</g>
</svg>
